<svg xmlns="http://www.w3.org/2000/svg" viewBox="70 175 700 180"><defs><style>.cls-1{fill:#1d1d1b;}</style></defs><polygon class="cls-1" points="79.16 331.82 84.45 331.82 84.45 311.28 104.54 311.28 104.54 305.98 84.45 305.98 84.45 275.22 115.84 275.22 115.84 269.92 79.16 269.92 79.16 331.82"/><path class="cls-1" d="M266.14,297.33a27.5,27.5,0,0,0-27.52-27.41H228.09v61.9h5.3v-7h5.23a27,27,0,0,0,14.65-4.16l7.38,11h6.42l-9.61-14.24A27.58,27.58,0,0,0,266.14,297.33Zm-5.29,0a21.54,21.54,0,0,1-1.75,8.73,22.1,22.1,0,0,1-20.48,13.5h-5.23V275.22h5.23a22.13,22.13,0,0,1,20.49,13.52A21.24,21.24,0,0,1,260.85,297.33Z"/><path class="cls-1" d="M326.72,299.61c-1.16-.64-2.57-1.3-4.41-2.09L316.73,295c-1.14-.53-2.18-1.06-3.15-1.56l-1.3-.66c-4.1-2.55-5.55-4.88-5.55-8.92,0-5.49,3.87-8.77,10.36-8.77a12.61,12.61,0,0,1,11.35,5.84l.63.88,4.45-3.34-.65-.84a18.75,18.75,0,0,0-15.78-7.83c-9.27,0-16,6-16,14.17,0,5.58,2.22,9.51,7.2,12.74a41.58,41.58,0,0,0,6.09,3.29l5.76,2.53c.87.32,1.77.78,2.63,1.2,6.66,3.45,9.13,6.72,9.13,12.08,0,6.37-5.53,10.82-13.44,10.82-9.22,0-13.21-4.44-15.66-8.3l-.61-1-4.41,3.31.49.81c2.87,4.71,8.72,10.32,20.3,10.32,11.42,0,19.08-6.43,19.08-16C337.65,308.82,334.29,303.82,326.72,299.61Z"/><rect class="cls-1" x="341.95" y="269.81" width="5.3" height="62.02"/><path class="cls-1" d="M390.61,297.33a27.5,27.5,0,0,0-27.53-27.41H352.56v61.9h5.3v-7h5.22a27.08,27.08,0,0,0,14.66-4.16l7.38,11h6.42l-9.62-14.24A27.55,27.55,0,0,0,390.61,297.33Zm-5.3,0a21.53,21.53,0,0,1-1.74,8.73,22.12,22.12,0,0,1-20.49,13.5h-5.22V275.22h5.22a22.17,22.17,0,0,1,20.5,13.52A21.23,21.23,0,0,1,385.31,297.33Z"/><polygon class="cls-1" points="393.53 331.82 431.58 331.82 431.58 326.53 398.83 326.53 398.83 311.28 420.17 311.28 420.17 305.98 398.83 305.98 398.83 275.22 431.58 275.22 431.58 269.92 393.53 269.92 393.53 331.82"/><polygon class="cls-1" points="476.39 315.8 439.48 269.81 434.73 269.81 434.73 331.82 440.03 331.82 440.03 278.97 476.39 324.18 476.39 331.82 481.68 331.82 481.68 269.81 476.39 269.81 476.39 315.8"/><path class="cls-1" d="M514,299.61c-1.17-.64-2.57-1.3-4.41-2.09L504,295c-1.14-.53-2.18-1.06-3.15-1.56l-1.31-.66c-4.1-2.55-5.55-4.88-5.55-8.92,0-5.49,3.87-8.77,10.36-8.77a12.63,12.63,0,0,1,11.36,5.84l.62.88,4.45-3.34-.64-.84a18.76,18.76,0,0,0-15.79-7.83c-9.27,0-16,6-16,14.17,0,5.58,2.23,9.51,7.2,12.74a41.74,41.74,0,0,0,6.1,3.29l5.76,2.53c.86.32,1.76.78,2.62,1.2,6.66,3.45,9.14,6.72,9.14,12.08,0,6.37-5.53,10.82-13.45,10.82-9.21,0-13.21-4.44-15.66-8.3l-.61-1-4.41,3.31.5.81c2.86,4.71,8.71,10.32,20.3,10.32,11.41,0,19.08-6.43,19.08-16C524.94,308.82,521.57,303.82,514,299.61Z"/><path class="cls-1" d="M567.78,269.92h-4.2v-.11h-5.3v62h5.3v-7h4.2a27.47,27.47,0,1,0,0-54.94ZM590,297.33a21.37,21.37,0,0,1-1.74,8.71v0a22,22,0,0,1-4.8,7.08,22.06,22.06,0,0,1-15.69,6.42h-4.2V275.22h4.2a22.13,22.13,0,0,1,20.49,13.52A21.07,21.07,0,0,1,590,297.33Z"/><path class="cls-1" d="M636.51,297.33A27.5,27.5,0,0,0,609,269.92H598.46v61.9h5.29v-7H609a27.08,27.08,0,0,0,14.66-4.16l7.38,11h6.41l-9.61-14.24A27.58,27.58,0,0,0,636.51,297.33Zm-5.3,0a21.53,21.53,0,0,1-1.74,8.73,22,22,0,0,1-4.8,7.08A22.06,22.06,0,0,1,609,319.56h-5.23V275.22H609a22.13,22.13,0,0,1,20.49,13.52A21.07,21.07,0,0,1,631.21,297.33Z"/><polygon class="cls-1" points="639.43 331.82 677.48 331.82 677.48 326.53 644.73 326.53 644.73 311.28 666.07 311.28 666.07 305.98 644.73 305.98 644.73 275.22 677.48 275.22 677.48 269.92 639.43 269.92 639.43 331.82"/><path class="cls-1" d="M709.12,299.61c-1.16-.64-2.57-1.3-4.41-2.09L699.13,295C698,294.48,697,294,696,293.45l-1.31-.66c-4.1-2.55-5.55-4.88-5.55-8.92,0-5.49,3.88-8.77,10.36-8.77a12.63,12.63,0,0,1,11.36,5.84l.62.88,4.45-3.34-.64-.84a18.76,18.76,0,0,0-15.79-7.83c-9.27,0-16,6-16,14.17,0,5.58,2.23,9.51,7.2,12.74a41.74,41.74,0,0,0,6.1,3.29l5.76,2.53c.86.32,1.77.78,2.62,1.2,6.66,3.45,9.14,6.72,9.14,12.08,0,6.37-5.53,10.82-13.45,10.82-9.21,0-13.21-4.44-15.66-8.3l-.61-1-4.41,3.31.5.81c2.86,4.71,8.71,10.32,20.3,10.32,11.41,0,19.08-6.43,19.08-16C720.05,308.82,716.68,303.82,709.12,299.61Z"/><path class="cls-1" d="M752.83,299.61c-1.16-.64-2.57-1.3-4.41-2.09L742.84,295c-1.14-.53-2.18-1.06-3.15-1.56l-1.3-.66c-4.1-2.55-5.56-4.88-5.56-8.92,0-5.49,3.88-8.77,10.37-8.77a12.62,12.62,0,0,1,11.35,5.84l.62.88,4.45-3.34-.64-.84a18.75,18.75,0,0,0-15.78-7.83c-9.28,0-16,6-16,14.17,0,5.58,2.23,9.51,7.21,12.74a41.07,41.07,0,0,0,6.09,3.29l5.76,2.53a27.91,27.91,0,0,1,2.62,1.2c6.66,3.45,9.14,6.72,9.14,12.08,0,6.37-5.53,10.82-13.45,10.82-9.21,0-13.21-4.44-15.66-8.3l-.6-1-4.42,3.31.5.81c2.87,4.71,8.71,10.32,20.3,10.32,11.41,0,19.08-6.43,19.08-16C763.76,308.82,760.39,303.82,752.83,299.61Z"/><path class="cls-1" d="M763.79,253.31H217a12.38,12.38,0,0,0-.15-6.22c-1.32-4.26-5.28-7-11.15-7.78a74.14,74.14,0,0,0-11.23-.3c-6.1.15-11.86.29-14.57-2.55-1.68-1.77-2.35-4.76-2-9.15a8.76,8.76,0,0,0,4.27-4.59c1-2.95,1.13-7.44-3.76-12-2.55-2.4-3.1-6.54-3.22-8.16a10,10,0,0,0,1.52-1,11.88,11.88,0,0,0,4.19-9c.27-7.82-5.88-12.48-10.24-12.71-5.26-.31-10.47,2.75-11.95,6.9-1,2.76-2.77,4.78-6,8.44l-.26.29c-3.81,4.32-5.58,7.39-5.34,16.82.2,7.61-10.57,13.94-10.68,14a2.07,2.07,0,0,0,1,3.86,2.14,2.14,0,0,0,1-.27c.53-.31,13-7.63,12.76-17.71-.22-8.45,1.24-10.5,4.3-14l.26-.28c3.33-3.78,5.54-6.28,6.79-9.79.76-2.13,4.13-4.37,7.83-4.16,2.37.12,6.5,3,6.31,8.42a7.81,7.81,0,0,1-2.65,5.94,6.45,6.45,0,0,1-5.26,1.28,2.08,2.08,0,0,0-.71,4.09,11.32,11.32,0,0,0,3,.11c.3,2.52,1.28,7,4.42,9.93,2.69,2.52,3.56,5.05,2.68,7.71-.57,1.7-3.87,3.71-7.26,3a2.08,2.08,0,0,0-.86,4.06,11.16,11.16,0,0,0,2.35.24,10,10,0,0,0,1.23-.09c-.1,4.79,1,8.31,3.24,10.71,4,4.17,10.63,4,17.67,3.83a71.88,71.88,0,0,1,10.6.27c2.95.38,6.68,1.54,7.72,4.9,1.46,4.7-2.37,12-9.76,18.61A36.14,36.14,0,0,1,177,276.3a2.1,2.1,0,0,0-2,1c-3.45,5.94-13.65,5.63-13.73,5.63a16.63,16.63,0,0,1-14.11-8.49c9.44,3.94,16.07.38,16.4.2a2.07,2.07,0,0,0-2-3.63,13.11,13.11,0,0,1-6.23,1.12,20.91,20.91,0,0,1-.64-8.34,8.27,8.27,0,0,0,7.52,2.58,12,12,0,0,1,7.53,1.19c4.79,5.1,9.38,4.53,10.39,4.32,19-2.55,18.5-20.11,18.5-20.28a2.08,2.08,0,0,0-4.15.17,15.68,15.68,0,0,1-.47,3.92c-5.6,1.12-20.54,2.81-26.66-2.09a7.19,7.19,0,0,1-2.73-5.85c-.19-13.72,1.24-21.52,1.66-23.51l.15-.09a2.08,2.08,0,0,0-1.78-3.75c-10.63,5.06-12.15,26.78-12.21,27.71a2.07,2.07,0,0,0,1.93,2.2h.14a2.08,2.08,0,0,0,2.07-1.94c.25-3.9,1.53-12.48,4.64-18.46a146.88,146.88,0,0,0-.74,17.9,11.93,11.93,0,0,0,1.33,5.48h-16.3c3.93-3.48,4.49-7.25,5.29-12.62.37-2.47.78-5.27,1.59-8.73,3-12.92,15.26-23.13,15.38-23.23a2.07,2.07,0,1,0-2.63-3.2c-.55.45-13.45,11.18-16.79,25.49-.84,3.62-1.29,6.64-1.65,9.06-1,7-1.4,9.4-8.32,13a2,2,0,0,0-.27.23h-60a2.07,2.07,0,1,0,0,4.14h76a2.11,2.11,0,0,0-1.29.55c-.41.39-3.8,3.9-1.95,13.4a24.75,24.75,0,0,1-6.73-3.26,2.07,2.07,0,0,0-3.18,2.17c0,.16,3.74,16,20.09,16.78h.54c2.37,0,11.67-.41,16.22-6.59A40.12,40.12,0,0,0,205.94,270a39,39,0,0,0,9.73-12.57H763.79a2.07,2.07,0,1,0,0-4.14ZM165.6,257.45c4.14,2.8,10.19,3.62,15.77,3.62a74,74,0,0,0,10.79-.85c-2,3.37-5.7,6.66-12.69,7.58l-.24.05c-.12,0-3.11.65-6.69-3.29a1.9,1.9,0,0,0-.4-.35,16,16,0,0,0-10.68-1.91c-3.53.62-5.23-3.39-5.3-3.55a2,2,0,0,0-1.47-1.25,1.75,1.75,0,0,0-.4-.05Z"/><path class="cls-1" d="M172.09,293a25.4,25.4,0,0,1,1.22,7.79A25.66,25.66,0,1,1,135.86,278a29,29,0,0,1-1.94-5A31,31,0,1,0,177,290.89,27.39,27.39,0,0,1,172.09,293Z"/><path class="cls-1" d="M763.79,253.31H217a12.38,12.38,0,0,0-.15-6.22c-1.32-4.26-5.28-7-11.15-7.78a74.14,74.14,0,0,0-11.23-.3c-6.1.15-11.86.29-14.57-2.55-1.68-1.77-2.35-4.76-2-9.15a8.76,8.76,0,0,0,4.27-4.59c1-2.95,1.13-7.44-3.76-12-2.55-2.4-3.1-6.54-3.22-8.16a10,10,0,0,0,1.52-1,11.88,11.88,0,0,0,4.19-9c.27-7.82-5.88-12.48-10.24-12.71-5.26-.31-10.47,2.75-11.95,6.9-1,2.76-2.77,4.78-6,8.44l-.26.29c-3.81,4.32-5.58,7.39-5.34,16.82.2,7.61-10.57,13.94-10.68,14a2.07,2.07,0,0,0,1,3.86,2.14,2.14,0,0,0,1-.27c.53-.31,13-7.63,12.76-17.71-.22-8.45,1.24-10.5,4.3-14l.26-.28c3.33-3.78,5.54-6.28,6.79-9.79.76-2.13,4.13-4.37,7.83-4.16,2.37.12,6.5,3,6.31,8.42a7.81,7.81,0,0,1-2.65,5.94,6.45,6.45,0,0,1-5.26,1.28,2.08,2.08,0,0,0-.71,4.09,11.32,11.32,0,0,0,3,.11c.3,2.52,1.28,7,4.42,9.93,2.69,2.52,3.56,5.05,2.68,7.71-.57,1.7-3.87,3.71-7.26,3a2.08,2.08,0,0,0-.86,4.06,11.16,11.16,0,0,0,2.35.24,10,10,0,0,0,1.23-.09c-.1,4.79,1,8.31,3.24,10.71,4,4.17,10.63,4,17.67,3.83a71.88,71.88,0,0,1,10.6.27c2.95.38,6.68,1.54,7.72,4.9,1.46,4.7-2.37,12-9.76,18.61A36.14,36.14,0,0,1,177,276.3a2.1,2.1,0,0,0-2,1c-3.45,5.94-13.65,5.63-13.73,5.63a16.63,16.63,0,0,1-14.11-8.49c9.44,3.94,16.07.38,16.4.2a2.07,2.07,0,0,0-2-3.63,13.11,13.11,0,0,1-6.23,1.12,20.91,20.91,0,0,1-.64-8.34,8.27,8.27,0,0,0,7.52,2.58,12,12,0,0,1,7.53,1.19c4.79,5.1,9.38,4.53,10.39,4.32,19-2.55,18.5-20.11,18.5-20.28a2.08,2.08,0,0,0-4.15.17,15.68,15.68,0,0,1-.47,3.92c-5.6,1.12-20.54,2.81-26.66-2.09a7.19,7.19,0,0,1-2.73-5.85c-.19-13.72,1.24-21.52,1.66-23.51l.15-.09a2.08,2.08,0,0,0-1.78-3.75c-10.63,5.06-12.15,26.78-12.21,27.71a2.07,2.07,0,0,0,1.93,2.2h.14a2.08,2.08,0,0,0,2.07-1.94c.25-3.9,1.53-12.48,4.64-18.46a146.88,146.88,0,0,0-.74,17.9,11.93,11.93,0,0,0,1.33,5.48h-16.3c3.93-3.48,4.49-7.25,5.29-12.62.37-2.47.78-5.27,1.59-8.73,3-12.92,15.26-23.13,15.38-23.23a2.07,2.07,0,1,0-2.63-3.2c-.55.45-13.45,11.18-16.79,25.49-.84,3.62-1.29,6.64-1.65,9.06-1,7-1.4,9.4-8.32,13a2,2,0,0,0-.27.23h-60a2.07,2.07,0,1,0,0,4.14h76a2.11,2.11,0,0,0-1.29.55c-.41.39-3.8,3.9-1.95,13.4a24.75,24.75,0,0,1-6.73-3.26,2.07,2.07,0,0,0-3.18,2.17c0,.16,3.74,16,20.09,16.78h.54c2.37,0,11.67-.41,16.22-6.59A40.12,40.12,0,0,0,205.94,270a39,39,0,0,0,9.73-12.57H763.79a2.07,2.07,0,1,0,0-4.14ZM165.6,257.45c4.14,2.8,10.19,3.62,15.77,3.62a74,74,0,0,0,10.79-.85c-2,3.37-5.7,6.66-12.69,7.58l-.24.05c-.12,0-3.11.65-6.69-3.29a1.9,1.9,0,0,0-.4-.35,16,16,0,0,0-10.68-1.91c-3.53.62-5.23-3.39-5.3-3.55a2,2,0,0,0-1.47-1.25,1.75,1.75,0,0,0-.4-.05Z"/><path class="cls-1" d="M763.79,343.22H79.19a2.07,2.07,0,0,0,0,4.14h684.6a2.07,2.07,0,1,0,0-4.14Z"/><path class="cls-1" d="M218.62,310.23a16.29,16.29,0,0,1-16.18,16.3,16.49,16.49,0,0,1-16.3-16.3V287.46a47.35,47.35,0,0,1-5,.53,2.52,2.52,0,0,1-.25.21v22a21.54,21.54,0,1,0,43.08,0V269.92h-5.3Z"/></svg>